# xmcd
#
# Track frame offsets: 
#        150
#        16738
#        27976
#        42207
#        55600
#        75605
#        97967
#        119106
#        135691
#        158273
#
# Disc length: 2298 seconds
#
# Revision: 0
# Processed by: cddbd v1.5PL3 Copyright (c) Steve Scherf et al.
# Submitted via: ExactAudioCopy v0.90b4
#
DISCID=6e08f80a
DTITLE=Bob Dylan - Oh Mercy
DYEAR=1989
DGENRE=Folk
TTITLE0=Political World
TTITLE1=Where Teardrops Fall
TTITLE2=Everything Is Broken
TTITLE3=Ring Them Bells
TTITLE4=Man In The Long Black Coat
TTITLE5=Most Of The Time
TTITLE6=What Good Am I?
TTITLE7=Disease Of Conceit
TTITLE8=What Was It You Wanted
TTITLE9=Shooting Star
EXTD=
EXTT0=
EXTT1=
EXTT2=
EXTT3=
EXTT4=
EXTT5=
EXTT6=
EXTT7=
EXTT8=
EXTT9=
PLAYORDER=
